<svg width="14" height="11" viewBox="0 0 14 11" fill="none" xmlns="http://www.w3.org/2000/svg">
<path d="M13.9814 8.25065V8.53107C13.9814 8.53107 13.9628 8.58909 13.9628 8.6181C13.9535 8.77282 13.9442 8.91786 13.9349 9.07258C13.9349 9.14027 13.907 9.17895 13.8606 9.21763C12.8287 9.99121 11.7039 10.5811 10.4861 10.9775C10.4117 10.9969 10.3745 10.9872 10.3281 10.9292C10.0864 10.5714 9.86325 10.2039 9.66804 9.82682C9.63085 9.74946 9.64944 9.73012 9.71452 9.71078C10.0306 9.58508 10.3374 9.44003 10.6348 9.26597C10.8207 9.15961 10.8115 9.16928 10.6534 9.02423C10.5698 8.94687 10.5047 8.9372 10.3931 8.98555C9.43564 9.43036 8.43166 9.68178 7.38121 9.73979C6.09835 9.79781 4.87127 9.55607 3.69997 9.0339C3.52334 8.95654 3.40249 8.95654 3.26305 9.09192C3.20728 9.14994 3.18868 9.16928 3.26305 9.21763C3.58841 9.40135 3.91378 9.57541 4.25773 9.71078C4.35069 9.74946 4.35069 9.77847 4.30421 9.85583C4.11829 10.2233 3.90448 10.5811 3.67208 10.9195C3.6163 10.9969 3.56982 11.0162 3.47686 10.9872C2.26837 10.5907 1.16214 10.0009 0.139577 9.23697C0.0838003 9.19829 0.0559121 9.14994 0.0559121 9.07258C0.0559121 8.95654 0.03732 8.84051 0.0280239 8.72447C-0.0370485 7.72848 0.0094318 6.74217 0.186057 5.76552C0.483531 4.03463 1.15285 2.46813 2.08245 1.00799C2.11034 0.959642 2.15682 0.920963 2.2033 0.891954C3.08643 0.485823 3.99744 0.19573 4.94564 0.0120044C5.01071 0.00233463 5.0386 0.0120044 5.07578 0.070023C5.16874 0.273088 5.271 0.466484 5.36396 0.669549C5.39185 0.737237 5.41974 0.775916 5.5127 0.756577C6.51667 0.61153 7.51135 0.61153 8.51532 0.756577C8.5804 0.756577 8.60829 0.756577 8.63617 0.688888C8.72913 0.485823 8.83139 0.282758 8.92435 0.0796928C8.95224 0.0120044 8.98942 -0.00733514 9.06379 0.00233463C10.0027 0.176391 10.9044 0.466484 11.7782 0.872614C11.8433 0.901623 11.8805 0.940302 11.9177 0.998321C13.089 2.80657 13.8048 4.7792 13.9628 6.96457C13.9628 7.07094 13.9535 7.17731 14 7.28367V7.54476C13.9628 7.59311 13.9721 7.65112 13.9814 7.69947C13.9907 7.8832 13.9535 8.06692 14 8.24098L13.9814 8.25065ZM8.05982 5.98792C8.05982 6.36504 8.14348 6.65514 8.31081 6.91622C8.78491 7.64145 9.69592 7.69947 10.2258 7.04193C10.6999 6.46174 10.672 5.54311 10.17 4.99194C9.7517 4.52779 9.08239 4.46977 8.59899 4.85656C8.22715 5.15632 8.06911 5.56245 8.05052 5.98792H8.05982ZM5.93102 6.08462C5.93102 5.83321 5.89384 5.6108 5.80088 5.40774C5.58707 4.94359 5.24311 4.63416 4.73183 4.61482C4.22984 4.58581 3.8673 4.84689 3.6163 5.28203C3.29094 5.85255 3.36531 6.58745 3.79293 7.09028C4.23914 7.61245 4.96423 7.66079 5.45692 7.19664C5.78228 6.89688 5.91243 6.51009 5.93102 6.09429V6.08462Z" fill="#6F6F6F"/>
</svg>
