<svg width="24" height="24" viewBox="0 0 24 24" fill="none" xmlns="http://www.w3.org/2000/svg">
<path d="M15.5 14H14.71L14.43 13.73C15.5266 12.4524 16.0856 10.7996 15.9895 9.11866C15.8934 7.43772 15.1499 5.85937 13.9149 4.71498C12.6799 3.5706 11.0496 2.94919 9.36625 2.98122C7.68287 3.01325 6.07738 3.69624 4.88684 4.88678C3.6963 6.07732 3.01331 7.68281 2.98128 9.36619C2.94925 11.0496 3.57066 12.6799 4.71504 13.9148C5.85943 15.1498 7.43778 15.8934 9.11872 15.9894C10.7997 16.0855 12.4524 15.5266 13.73 14.43L14 14.71V15.5L19 20.5L20.49 19L15.5 14ZM9.50004 14C8.61003 14 7.74 13.7361 6.99998 13.2416C6.25996 12.7471 5.68318 12.0443 5.34259 11.2221C5.00199 10.3998 4.91288 9.49499 5.08651 8.62208C5.26014 7.74916 5.68873 6.94734 6.31806 6.318C6.9474 5.68867 7.74922 5.26008 8.62214 5.08645C9.49505 4.91282 10.3999 5.00193 11.2221 5.34253C12.0444 5.68312 12.7472 6.2599 13.2417 6.99992C13.7361 7.73994 14 8.60997 14 9.49998C14.0014 10.0913 13.8859 10.6771 13.6602 11.2236C13.4345 11.7702 13.1031 12.2668 12.685 12.6849C12.2668 13.103 11.7702 13.4344 11.2237 13.6601C10.6771 13.8858 10.0914 14.0013 9.50004 14Z" fill="#6F6F6F"/>
</svg>
