<svg width="10" height="12" viewBox="0 0 10 12" fill="none" xmlns="http://www.w3.org/2000/svg">
<path d="M9.98464 2.84639C9.33531 2.84639 8.7349 2.63069 8.25457 2.26822C7.70308 1.85238 7.30503 1.24085 7.16493 0.538146C7.12935 0.364694 7.11156 0.184571 7.10934 0H5.25251V5.07236L5.25029 7.84981C5.25029 8.59254 4.76551 9.22186 4.09617 9.44424C3.90048 9.50873 3.69145 9.53986 3.47352 9.52652C3.19333 9.51095 2.93315 9.42645 2.7041 9.2908C2.21933 9.00171 1.89244 8.47691 1.88354 7.87428C1.8702 6.93586 2.6285 6.16866 3.56692 6.16866C3.75149 6.16866 3.92939 6.1998 4.09617 6.25317V4.86777V4.37188C3.92049 4.34519 3.74259 4.33185 3.56024 4.33185C2.53288 4.33185 1.57222 4.75881 0.885081 5.52823C0.366949 6.10862 0.0556247 6.85135 0.00670235 7.62966C-0.0555625 8.65036 0.318026 9.62214 1.04297 10.3382C1.14971 10.4427 1.26089 10.5405 1.37875 10.6317C1.99918 11.1098 2.7597 11.37 3.56024 11.37C3.74037 11.37 3.92049 11.3567 4.09617 11.33C4.84334 11.2188 5.53271 10.8763 6.07752 10.3382C6.74687 9.67773 7.11601 8.79935 7.12046 7.86538L7.11156 3.71588C7.42956 3.96271 7.77869 4.16507 8.1545 4.32296C8.73712 4.56979 9.35532 4.6921 9.98909 4.6921V3.34451V2.84417C9.99131 2.84639 9.98464 2.84639 9.98464 2.84639Z" fill="#6F6F6F"/>
</svg>
