<svg width="13" height="12" viewBox="0 0 13 12" fill="none" xmlns="http://www.w3.org/2000/svg">
<path d="M7.62748 5.25293L7.13452 4.56676L3.90648 0.074074H0.396204L5.17083 6.78L5.66307 7.47122L8.83466 11.9259H12.4224L7.62748 5.25293ZM6.18761 6.87862L5.69592 6.18792L1.87727 0.824714H3.49592L6.60979 5.15832L7.10312 5.84518L10.9332 11.1756H9.24703L6.18761 6.87862Z" fill="#6F6F6F"/>
<path d="M5.69592 6.18792L6.18761 6.87862L5.66307 7.47122L1.71773 11.9259H0.604211L5.17083 6.78L5.69592 6.18792Z" fill="#6F6F6F"/>
<path d="M12.2141 0.074074L7.62748 5.25293L7.10312 5.84518L6.60979 5.15832L7.13452 4.56676L11.1212 0.074074H12.2141Z" fill="#6F6F6F"/>
<path fill-rule="evenodd" clip-rule="evenodd" d="M5.76696 6.22208L6.16838 6.78596L6.19427 6.7567L9.28776 11.1016H10.7862L7.00601 5.84049L7.03189 5.81126L6.62924 5.25064L6.60336 5.27982L3.45541 0.898788H2.02348L5.79289 6.19285L5.76696 6.22208ZM9.24703 11.1756H10.9332L3.49592 0.824714H1.87727L9.24703 11.1756ZM5.17083 6.78L0.604211 11.9259H1.71773L5.66307 7.47122L8.83466 11.9259H12.4224L7.62748 5.25293L12.2141 0.074074H11.1212L7.13452 4.56676L3.90648 0.074074H0.396204L5.17083 6.78ZM5.07385 6.77506L0.25 0H3.94699L7.14096 4.44527L11.0856 0H12.3809L7.72459 5.25763L12.5694 12H8.79393L5.65639 7.59312L1.75341 12H0.437111L5.07385 6.77506Z" fill="#6F6F6F"/>
</svg>
